<?xml version="1.0" standalone="no"?>
<!DOCTYPE svg PUBLIC "-//W3C//DTD SVG 20010904//EN"
 "http://www.w3.org/TR/2001/REC-SVG-20010904/DTD/svg10.dtd">
<svg version="1.0" xmlns="http://www.w3.org/2000/svg"
 width="175.000000pt" height="175.000000pt" viewBox="0 0 175.000000 175.000000"
 preserveAspectRatio="xMidYMid meet">

<g transform="translate(0.000000,175.000000) scale(0.100000,-0.100000)"
fill="#000000" stroke="none">
<path d="M0 1455 l0 -294 25 24 c19 20 34 25 77 25 119 0 245 55 319 139 61
69 99 155 118 272 13 74 22 105 36 115 16 12 -24 14 -278 14 l-297 0 0 -295z"/>
<path d="M1184 1734 c9 -8 16 -21 16 -27 2 -52 23 -164 40 -209 57 -154 220
-260 432 -283 39 -4 61 -12 68 -23 6 -11 9 78 10 271 l0 287 -291 0 c-264 0
-289 -1 -275 -16z"/>
<path d="M632 1553 c-39 -158 -126 -288 -240 -361 -59 -39 -188 -82 -241 -82
l-41 0 -2 -192 c0 -106 -2 -200 -3 -208 -4 -42 11 -54 84 -66 169 -29 304
-130 380 -286 40 -81 71 -180 71 -225 l0 -23 228 0 228 0 18 78 c56 247 226
423 446 463 36 6 71 13 78 15 9 3 12 56 12 224 0 168 -3 221 -12 224 -7 2 -47
11 -90 20 -221 49 -384 204 -427 406 -7 30 -14 65 -17 78 l-4 22 -224 0 -223
0 -21 -87z m311 -52 c16 -2 6 -41 -10 -42 -10 0 0 -7 23 -15 57 -20 85 -54 91
-108 9 -77 -23 -121 -105 -146 -16 -5 -20 -9 -9 -9 10 -1 17 -9 17 -21 0 -18
-7 -20 -80 -20 -73 0 -80 2 -80 20 0 12 7 20 18 21 9 0 -4 7 -29 14 -25 8 -53
23 -63 34 -40 45 -38 138 5 177 11 10 42 27 67 36 31 11 39 17 25 17 -16 1
-23 7 -23 20 0 16 8 20 38 23 32 3 92 2 115 -1z m37 -448 c71 -41 95 -145 51
-217 -12 -19 -27 -37 -34 -40 -7 -2 -4 -5 6 -5 10 -1 20 6 23 14 4 8 15 15 25
15 16 0 19 -8 19 -55 l0 -55 -90 0 -90 0 7 46 c4 31 15 54 34 73 80 80 22 223
-77 191 -50 -17 -68 -49 -62 -112 4 -42 11 -57 37 -80 26 -23 31 -35 31 -73
l0 -45 -80 0 c-73 0 -80 2 -81 20 -3 69 -2 75 14 78 9 2 17 -1 17 -7 0 -6 7
-11 17 -11 14 0 15 2 1 18 -27 30 -48 80 -48 112 0 64 51 129 119 151 39 13
126 3 161 -18z m538 -2 c3 -15 -2 -21 -16 -21 -28 0 -32 -18 -32 -133 0 -121
6 -147 31 -147 12 0 19 -7 19 -20 0 -16 -7 -20 -32 -20 -18 0 -57 -3 -85 -6
-52 -7 -53 -6 -53 19 0 19 6 26 23 29 19 3 22 10 25 61 l3 57 -66 0 -65 0 0
-60 c0 -53 2 -60 20 -60 15 0 20 -7 20 -25 0 -26 0 -26 -82 -23 -75 3 -83 5
-83 23 0 13 8 21 23 23 22 3 22 6 22 138 l0 134 -26 10 c-49 19 -22 35 64 38
75 3 82 1 82 -16 0 -11 -9 -22 -20 -25 -17 -4 -20 -14 -20 -56 l0 -51 66 0 65
0 -3 53 c-3 45 -6 52 -25 55 -15 2 -23 10 -23 22 0 16 9 19 58 22 95 5 107 3
110 -21z m-898 15 c0 -2 -47 -72 -105 -156 -58 -83 -107 -157 -108 -163 -3
-15 70 -9 110 10 17 8 39 25 47 38 11 16 22 22 36 18 24 -6 24 0 -1 -67 l-22
-56 -154 0 -153 0 102 150 c57 82 107 156 113 164 15 23 1 28 -51 16 -31 -7
-61 -23 -81 -42 -22 -21 -36 -28 -46 -22 -13 8 -12 16 6 62 l20 52 143 0 c79
0 144 -2 144 -4z m403 -453 c3 -5 8 -29 11 -55 6 -43 5 -48 -12 -48 -10 0 -24
11 -30 24 -8 19 -20 24 -64 29 -81 8 -85 -2 -29 -57 l50 -49 -50 -57 c-27 -31
-49 -60 -49 -63 0 -4 30 -7 66 -7 60 0 68 3 94 30 31 34 67 41 55 13 -3 -10
-11 -39 -16 -65 l-11 -48 -185 0 -185 0 88 96 88 97 -82 78 c-72 68 -79 78
-59 82 39 8 316 7 320 0z"/>
<path d="M802 1384 c-13 -11 -25 -35 -28 -56 -6 -31 -2 -41 22 -65 l29 -28 3
43 c2 23 2 61 0 83 l-3 41 -23 -18z"/>
<path d="M910 1320 c0 -44 4 -80 8 -80 27 0 47 31 47 73 0 43 -24 87 -47 87
-4 0 -8 -36 -8 -80z"/>
<path d="M1733 581 c-9 -14 -29 -20 -87 -25 -187 -17 -313 -101 -387 -260 -29
-62 -58 -176 -59 -228 0 -16 -9 -37 -20 -48 l-20 -20 295 0 295 0 0 300 c0
165 -1 300 -3 300 -1 0 -7 -8 -14 -19z"/>
<path d="M0 291 l0 -291 291 0 c259 0 289 2 275 15 -8 8 -17 37 -21 63 -33
259 -164 423 -369 461 -33 6 -76 11 -96 11 -19 0 -46 7 -58 16 l-22 15 0 -290z"/>
</g>
</svg>
